<svg width="512" height="512" viewBox="0 0 512 512" fill="none" xmlns="http://www.w3.org/2000/svg">
<g clip-path="url(#clip0)">
<path d="M508.875 248.458L348.875 88.4583C344.708 84.2913 337.958 84.2913 333.792 88.4583C329.625 92.6253 329.625 99.3753 333.792 103.541L475.584 245.333H10.667C4.771 245.333 0 250.104 0 256C0 261.896 4.771 266.667 10.667 266.667H475.584L333.792 408.458C329.625 412.625 329.625 419.375 333.792 423.541C335.875 425.624 338.605 426.666 341.334 426.666C344.063 426.666 346.792 425.624 348.876 423.541L508.876 263.541C513.042 259.375 513.042 252.625 508.875 248.458Z" fill="white"/>
</g>
<defs>
<clipPath id="clip0">
<rect width="512" height="512" fill="white"/>
</clipPath>
</defs>
</svg>
